<svg width="359" height="395" viewBox="0 0 359 395" fill="none" xmlns="http://www.w3.org/2000/svg">
<path d="M337.5 199.195C337.5 201.473 336.403 203.748 334.208 206.001C332.012 208.256 328.746 210.455 324.497 212.566C316 216.786 303.672 220.6 288.398 223.808C257.858 230.224 215.644 234.195 169 234.195C122.356 234.195 80.1418 230.224 49.6017 223.808C34.3276 220.6 22.0001 216.786 13.5033 212.566C9.25393 210.455 5.98843 208.256 3.79163 206.001C1.5966 203.748 0.5 201.473 0.5 199.195C0.5 196.917 1.5966 194.643 3.79163 192.39C5.98843 190.135 9.25393 187.935 13.5033 185.825C22.0001 181.605 34.3276 177.791 49.6017 174.582C80.1418 168.167 122.356 164.195 169 164.195C215.644 164.195 257.858 168.167 288.398 174.582C303.672 177.791 316 181.605 324.497 185.825C328.746 187.935 332.012 190.135 334.208 192.39C336.403 194.643 337.5 196.917 337.5 199.195Z" stroke="black"/>
<path d="M337.5 224.195C337.5 226.473 336.403 228.748 334.208 231.001C332.012 233.256 328.746 235.455 324.497 237.566C316 241.786 303.672 245.6 288.398 248.808C257.858 255.224 215.644 259.195 169 259.195C122.356 259.195 80.1418 255.224 49.6017 248.808C34.3276 245.6 22.0001 241.786 13.5033 237.566C9.25393 235.455 5.98843 233.256 3.79163 231.001C1.5966 228.748 0.5 226.473 0.5 224.195C0.5 221.917 1.5966 219.643 3.79163 217.39C5.98843 215.135 9.25393 212.935 13.5033 210.825C22.0001 206.605 34.3276 202.791 49.6017 199.582C80.1418 193.167 122.356 189.195 169 189.195C215.644 189.195 257.858 193.167 288.398 199.582C303.672 202.791 316 206.605 324.497 210.825C328.746 212.935 332.012 215.135 334.208 217.39C336.403 219.643 337.5 221.917 337.5 224.195Z" stroke="black"/>
<path d="M337.5 249.195C337.5 251.473 336.403 253.748 334.208 256.001C332.012 258.256 328.746 260.455 324.497 262.566C316 266.786 303.672 270.6 288.398 273.808C257.858 280.224 215.644 284.195 169 284.195C122.356 284.195 80.1418 280.224 49.6017 273.808C34.3276 270.6 22.0001 266.786 13.5033 262.566C9.25393 260.455 5.98843 258.256 3.79163 256.001C1.5966 253.748 0.5 251.473 0.5 249.195C0.5 246.917 1.5966 244.643 3.79163 242.39C5.98843 240.135 9.25393 237.935 13.5033 235.825C22.0001 231.605 34.3276 227.791 49.6017 224.582C80.1418 218.167 122.356 214.195 169 214.195C215.644 214.195 257.858 218.167 288.398 224.582C303.672 227.791 316 231.605 324.497 235.825C328.746 237.935 332.012 240.135 334.208 242.39C336.403 244.643 337.5 246.917 337.5 249.195Z" stroke="black"/>
<path d="M252.343 67.3246L252.511 68.23L253.179 67.5962L300.311 22.8723L272.341 81.5184L271.945 82.3495L272.858 82.2293L337.276 73.7507L280.177 104.756L279.368 105.195L280.177 105.635L337.276 136.64L272.858 128.161L271.945 128.041L272.341 128.872L300.311 187.518L253.179 142.794L252.511 142.161L252.343 143.066L240.5 206.952L228.657 143.066L228.489 142.161L227.821 142.794L180.689 187.518L208.659 128.872L209.055 128.041L208.142 128.161L143.724 136.64L200.823 105.635L201.632 105.195L200.823 104.756L143.724 73.7507L208.142 82.2293L209.055 82.3495L208.659 81.5184L180.689 22.8723L227.821 67.5962L228.489 68.23L228.657 67.3246L240.5 3.43848L252.343 67.3246Z" stroke="black"/>
<path d="M277 177.695L294.789 222.756L341.11 208.569L316.972 250.572L356.944 277.942L309.055 285.258L312.578 333.575L277 300.695L241.422 333.575L244.945 285.258L197.056 277.942L237.028 250.572L212.89 208.569L259.211 222.756L277 177.695Z" fill="#D9D9D9"/>
<path d="M112.194 306.798L135.134 264.695L158.258 306.798L200.269 329.83L158.258 352.862L135.134 394.964L112.194 352.862L70 329.83L112.194 306.798Z" fill="#B9FF66"/>
<circle cx="152.5" cy="187.195" r="62" fill="black" stroke="black"/>
<ellipse cx="132" cy="173.695" rx="10" ry="20" fill="white"/>
<ellipse cx="173" cy="173.695" rx="10" ry="20" fill="white"/>
</svg>
